<mxfile host="app.diagrams.net" modified="2023-07-07T07:14:40.687Z" agent="Mozilla/5.0 (Windows NT 10.0; Win64; x64) AppleWebKit/537.36 (KHTML, like Gecko) Chrome/114.0.0.0 Safari/537.36 Edg/114.0.1823.67" etag="ORPx-MZkS5b__I3bAP5I" version="21.6.1" type="device">
  <diagram name="ページ1" id="_2WbdCHmIk3axlrSSZxs">
    <mxGraphModel dx="880" dy="444" grid="1" gridSize="10" guides="1" tooltips="1" connect="1" arrows="1" fold="1" page="1" pageScale="1" pageWidth="827" pageHeight="1169" math="0" shadow="0">
      <root>
        <mxCell id="0" />
        <mxCell id="1" parent="0" />
        <mxCell id="-M96Xya3_nc7D0t2OIAE-5" value="" style="rounded=0;whiteSpace=wrap;html=1;" parent="1" vertex="1">
          <mxGeometry x="40" y="60" width="600" height="360" as="geometry" />
        </mxCell>
        <mxCell id="-M96Xya3_nc7D0t2OIAE-1" value="" style="shape=umlBoundary;whiteSpace=wrap;html=1;" parent="1" vertex="1">
          <mxGeometry x="250" y="80" width="100" height="80" as="geometry" />
        </mxCell>
        <mxCell id="-M96Xya3_nc7D0t2OIAE-2" value="" style="ellipse;shape=umlControl;whiteSpace=wrap;html=1;" parent="1" vertex="1">
          <mxGeometry x="400" y="80" width="70" height="80" as="geometry" />
        </mxCell>
        <mxCell id="-M96Xya3_nc7D0t2OIAE-3" value="" style="ellipse;shape=umlEntity;whiteSpace=wrap;html=1;" parent="1" vertex="1">
          <mxGeometry x="530" y="80" width="80" height="80" as="geometry" />
        </mxCell>
        <mxCell id="-M96Xya3_nc7D0t2OIAE-4" value="ステレオタイプ" style="text;html=1;strokeColor=none;fillColor=none;align=center;verticalAlign=middle;whiteSpace=wrap;rounded=0;" parent="1" vertex="1">
          <mxGeometry x="70" y="200" width="120" height="30" as="geometry" />
        </mxCell>
        <mxCell id="-M96Xya3_nc7D0t2OIAE-6" value="説明" style="text;html=1;strokeColor=none;fillColor=none;align=center;verticalAlign=middle;whiteSpace=wrap;rounded=0;" parent="1" vertex="1">
          <mxGeometry x="100" y="280" width="60" height="30" as="geometry" />
        </mxCell>
        <mxCell id="-M96Xya3_nc7D0t2OIAE-7" value="ユースケース内のクラスの数" style="text;html=1;strokeColor=none;fillColor=none;align=center;verticalAlign=middle;whiteSpace=wrap;rounded=0;" parent="1" vertex="1">
          <mxGeometry x="50" y="360" width="160" height="30" as="geometry" />
        </mxCell>
        <mxCell id="-M96Xya3_nc7D0t2OIAE-10" value="" style="endArrow=none;html=1;rounded=0;" parent="1" edge="1">
          <mxGeometry width="50" height="50" relative="1" as="geometry">
            <mxPoint x="40" y="254.84" as="sourcePoint" />
            <mxPoint x="640" y="255" as="targetPoint" />
          </mxGeometry>
        </mxCell>
        <mxCell id="-M96Xya3_nc7D0t2OIAE-11" value="" style="endArrow=none;html=1;rounded=0;" parent="1" edge="1">
          <mxGeometry width="50" height="50" relative="1" as="geometry">
            <mxPoint x="40" y="330" as="sourcePoint" />
            <mxPoint x="640" y="330.15999999999997" as="targetPoint" />
          </mxGeometry>
        </mxCell>
        <mxCell id="-M96Xya3_nc7D0t2OIAE-12" value="" style="endArrow=none;html=1;rounded=0;" parent="1" edge="1">
          <mxGeometry width="50" height="50" relative="1" as="geometry">
            <mxPoint x="40" y="180.00000000000003" as="sourcePoint" />
            <mxPoint x="640" y="180.16" as="targetPoint" />
          </mxGeometry>
        </mxCell>
        <mxCell id="-M96Xya3_nc7D0t2OIAE-13" value="" style="endArrow=none;html=1;rounded=0;entryX=0.302;entryY=-0.004;entryDx=0;entryDy=0;entryPerimeter=0;" parent="1" target="-M96Xya3_nc7D0t2OIAE-5" edge="1">
          <mxGeometry width="50" height="50" relative="1" as="geometry">
            <mxPoint x="220" y="420" as="sourcePoint" />
            <mxPoint x="270" y="370" as="targetPoint" />
          </mxGeometry>
        </mxCell>
        <mxCell id="-M96Xya3_nc7D0t2OIAE-14" value="" style="endArrow=none;html=1;rounded=0;entryX=0.302;entryY=-0.004;entryDx=0;entryDy=0;entryPerimeter=0;" parent="1" edge="1">
          <mxGeometry width="50" height="50" relative="1" as="geometry">
            <mxPoint x="370" y="421" as="sourcePoint" />
            <mxPoint x="371" y="60" as="targetPoint" />
          </mxGeometry>
        </mxCell>
        <mxCell id="-M96Xya3_nc7D0t2OIAE-15" value="" style="endArrow=none;html=1;rounded=0;entryX=0.302;entryY=-0.004;entryDx=0;entryDy=0;entryPerimeter=0;" parent="1" edge="1">
          <mxGeometry width="50" height="50" relative="1" as="geometry">
            <mxPoint x="500" y="420" as="sourcePoint" />
            <mxPoint x="501" y="59" as="targetPoint" />
          </mxGeometry>
        </mxCell>
        <mxCell id="-M96Xya3_nc7D0t2OIAE-16" value="②&amp;lt;&amp;lt;boundary&amp;gt;&amp;gt;" style="text;html=1;strokeColor=none;fillColor=none;align=center;verticalAlign=middle;whiteSpace=wrap;rounded=0;" parent="1" vertex="1">
          <mxGeometry x="270" y="200" width="60" height="30" as="geometry" />
        </mxCell>
        <mxCell id="-M96Xya3_nc7D0t2OIAE-17" value="③&amp;lt;&amp;lt;control&amp;gt;&amp;gt;" style="text;html=1;strokeColor=none;fillColor=none;align=center;verticalAlign=middle;whiteSpace=wrap;rounded=0;" parent="1" vertex="1">
          <mxGeometry x="405" y="200" width="60" height="30" as="geometry" />
        </mxCell>
        <mxCell id="-M96Xya3_nc7D0t2OIAE-19" value="①&amp;lt;&amp;lt;entity&amp;gt;&amp;gt;" style="text;html=1;strokeColor=none;fillColor=none;align=center;verticalAlign=middle;whiteSpace=wrap;rounded=0;" parent="1" vertex="1">
          <mxGeometry x="540" y="200" width="60" height="30" as="geometry" />
        </mxCell>
        <mxCell id="-M96Xya3_nc7D0t2OIAE-20" value="⑤アクターとインタフェースをとる" style="text;html=1;strokeColor=none;fillColor=none;align=center;verticalAlign=middle;whiteSpace=wrap;rounded=0;" parent="1" vertex="1">
          <mxGeometry x="240" y="280" width="120" height="30" as="geometry" />
        </mxCell>
        <mxCell id="-M96Xya3_nc7D0t2OIAE-21" value="⑥ユースケースを制御する" style="text;html=1;strokeColor=none;fillColor=none;align=center;verticalAlign=middle;whiteSpace=wrap;rounded=0;" parent="1" vertex="1">
          <mxGeometry x="387.5" y="280" width="95" height="30" as="geometry" />
        </mxCell>
        <mxCell id="-M96Xya3_nc7D0t2OIAE-22" value="④情報を属性として保持する" style="text;html=1;strokeColor=none;fillColor=none;align=center;verticalAlign=middle;whiteSpace=wrap;rounded=0;" parent="1" vertex="1">
          <mxGeometry x="515" y="280" width="110" height="30" as="geometry" />
        </mxCell>
        <mxCell id="-M96Xya3_nc7D0t2OIAE-24" value="⑧アクターとユースケースのペアで原則一つ" style="text;html=1;strokeColor=none;fillColor=none;align=center;verticalAlign=middle;whiteSpace=wrap;rounded=0;" parent="1" vertex="1">
          <mxGeometry x="240" y="360" width="120" height="30" as="geometry" />
        </mxCell>
        <mxCell id="-M96Xya3_nc7D0t2OIAE-25" value="⑦ユースケースに原則一つ" style="text;html=1;strokeColor=none;fillColor=none;align=center;verticalAlign=middle;whiteSpace=wrap;rounded=0;" parent="1" vertex="1">
          <mxGeometry x="387.5" y="360" width="95" height="30" as="geometry" />
        </mxCell>
        <mxCell id="-M96Xya3_nc7D0t2OIAE-26" value="⑨ユースケースにいくつ必要かは機械的には決められない" style="text;html=1;strokeColor=none;fillColor=none;align=center;verticalAlign=middle;whiteSpace=wrap;rounded=0;" parent="1" vertex="1">
          <mxGeometry x="510" y="360" width="120" height="30" as="geometry" />
        </mxCell>
        <mxCell id="-M96Xya3_nc7D0t2OIAE-27" value="アイコン" style="text;html=1;strokeColor=none;fillColor=none;align=center;verticalAlign=middle;whiteSpace=wrap;rounded=0;" parent="1" vertex="1">
          <mxGeometry x="100" y="105" width="60" height="30" as="geometry" />
        </mxCell>
      </root>
    </mxGraphModel>
  </diagram>
</mxfile>
